<svg xmlns="http://www.w3.org/2000/svg" width="165" height="42" viewBox="0 0 165 42"><path d="M.095 41.099v-.569h1.896c2.418 0 3.461-1.612 3.461-3.604v-27.423c0-2.229-1.043-3.745-3.556-3.745h-1.896v-.57h22.191v.57h-2.75c-1.707 0-2.798 1.186-2.798 2.749v29.035c0 2.465.996 2.987 3.604 2.987 7.302 0 12.328-11.143 12.328-15.601h.475v16.17h-32.955zM51.495 41.099v-3.415c-.9 2.987-3.888 4.223-7.444 4.223-3.937 0-7.872-2.421-7.872-8.016v-16.028c0-1.232-.332-1.802-1.327-1.802h-1.803v-.616h12.567v20.912c0 2.751 1.138 3.556 2.323 3.556 1.849 0 3.556-2.465 3.556-6.069v-16.171c0-1.28-.853-1.611-1.279-1.611h-.949v-.616h11.476v23.047c0 1.138.521 2.037 1.612 2.037h1.612v.569h-12.472zM72.827 29.527l-6.592-11.427c-.805-1.423-1.563-2.039-2.845-2.039h-1.375v-.664h17.356v.664h-.949c-.806 0-1.279.569-1.279 1.233 0 .284.047.568.235.854l3.368 5.784 1.991-2.751c.759-.946 1.089-2.038 1.089-2.891 0-1.281-.663-2.229-1.801-2.229h-.712v-.664h9.438v.664h-.617c-1.943 0-4.979 2.893-6.733 5.266l-2.322 3.127 8.108 13.941c1.043 1.803 2.133 2.087 3.603 2.087h.948v.665h-18.113v-.665h.854c.949 0 1.659-.381 1.659-1.185 0-.381-.144-.806-.426-1.28l-4.601-7.969M73.558 30.429l-3.528 4.883c-.758.948-1.09 2.038-1.09 2.894 0 1.279.662 2.228 1.802 2.228h.711v.664h-9.437v-.664h.617c1.943 0 4.979-2.893 6.734-5.266l3.859-5.26M104.457 42c-7.824 0-14.178-6.164-14.178-13.752 0-7.541 6.354-13.704 14.178-13.704 7.822 0 14.176 6.163 14.176 13.704 0 7.588-6.354 13.752-14.176 13.752m.047-26.744c-2.846 0-3.367 2.37-3.367 13.181 0 11.335.807 12.853 3.367 12.853 2.658 0 3.365-2.181 3.365-12.708 0-9.106.143-13.326-3.365-13.326M115.023 1.013c11.145 0 17.025 6.023 17.025 16.359v21c0 1.28.66 2.086 1.99 2.086h1.232v.615h-13.04v-25.739c0-9.911-3.412-13.609-8.676-13.609-2.277 0-4.457 1.326-4.457 2.228 0 .284.236.238.664.238 2.656 0 4.836 1.896 4.836 4.457 0 2.892-2.369 4.884-4.979 4.884-2.752 0-4.885-2.323-4.885-4.884.001-3.842 3.939-7.635 10.29-7.635M158.004 41.811c-6.119 0-7.066-5.17-7.209-5.17-.189 0-.473 1.28-1.326 2.514-.854 1.279-1.943 2.513-5.359 2.513-4.979 0-8.25-2.75-8.25-6.779 0-6.26 6.447-6.545 9.057-7.209 2.609-.663 5.977-1.374 5.977-7.302 0-4.268-1.377-5.074-3.557-5.074-2.184 0-4.553 1.232-4.553 1.945 0 .235.094.284.189.284l.521-.049c2.369 0 4.125 1.992 4.125 4.268 0 2.703-2.227 4.979-4.836 4.979-2.562 0-4.979-1.943-4.979-5.073 0-3.509 3.555-6.877 11.285-6.877 6.543 0 11.047 2.561 11.047 7.637v16.264c0 1.232.43 1.707.994 1.707.998 0 2.23-2.182 2.23-5.454v-.662h.617c.002 4.644-.948 7.538-5.973 7.538m-7.443-16.741c-.098 0-.762.854-1.756 1.612-.854.665-3.08 1.519-3.08 7.874 0 5.403.186 5.877 1.373 5.877 1.471 0 3.605-3.793 3.605-6.969v-8.154c0-.144 0-.24-.142-.24"/></svg>